<?xml version="1.0" encoding="UTF-8"?>
<svg id="Layer_1" data-name="Layer 1" xmlns="http://www.w3.org/2000/svg" viewBox="0 0 1000 1000">
  <defs>
    <style>
      .cls-1 {
        fill: #ECF0F1;
      }

      .cls-2 {
        fill: #ECF0F1;
      }

      .cls-3 {
        fill: #ECF0F1;
      }
    </style>
  </defs>
  <path class="cls-2" d="M893.2,436.27c-6.18,10.54-12.89,20.56-20.08,29.99-20.12,26.38-43.77,47.83-69.71,63.17-21.79,12.9-44.98,21.34-68.68,25.04H328.24l-5.5,.35c-41.15,2.5-81.73,15.26-119.38,37.55-36.19,21.41-69.22,51.35-97.31,88.18-27.33,35.82-49.64,77.75-65.84,123.69-2.97-19.68-4.46-39.75-4.46-59.88-.01-41.1,6.27-81.98,18.48-119.86,11.78-36.59,28.89-69.9,50.32-97.99,20.12-26.38,43.77-47.83,69.71-63.17,26.91-15.93,55.97-25.06,85.47-26.86l3.28-.21H893.2"/>
  <path class="cls-3" d="M901.81,29.68c-6.42,10.54-13.38,20.56-20.85,29.99-20.88,26.38-45.43,47.83-72.36,63.17-22.61,12.9-46.69,21.34-71.29,25.04H315.37l-5.71,.35c-42.71,2.5-84.84,15.26-123.91,37.55-37.57,21.41-71.85,51.35-101.01,88.18-28.37,35.82-51.53,77.75-68.34,123.69-3.08-19.68-4.63-39.75-4.63-59.88-.02-41.1,6.51-81.98,19.18-119.86,12.23-36.59,29.99-69.9,52.23-97.99,20.88-26.38,45.43-47.83,72.36-63.17,27.93-15.93,58.09-25.06,88.72-26.86l3.4-.21H901.81"/>
  <path class="cls-2" d="M901.81,234.13c-6.42,10.54-13.38,20.56-20.85,29.99-20.88,26.38-45.43,47.83-72.36,63.17-22.61,12.9-46.69,21.34-71.29,25.04H315.37l-5.71,.35c-42.71,2.5-84.84,15.26-123.91,37.55-37.57,21.41-71.85,51.35-101.01,88.18-28.37,35.82-51.53,77.75-68.34,123.69-3.08-19.68-4.63-39.75-4.63-59.88-.02-41.1,6.51-81.98,19.18-119.86,12.23-36.59,29.99-69.9,52.23-97.99,20.88-26.38,45.43-47.83,72.36-63.17,27.93-15.93,58.09-25.06,88.72-26.86l3.4-.21H901.81"/>
  <path class="cls-1" d="M165.29,948.88c1.02-13.25,2.9-26.45,5.64-39.5,7.66-36.5,21.88-71.42,41.96-102.86,16.86-26.41,37.7-50.11,61.68-70.19l442.39-288.95,3.7-2.42,5.84-4.24c43.79-31.58,81.35-71.36,110.47-117.01,28.01-43.87,47.88-92.61,58.57-143.58,10.4-49.58,11.96-100.68,4.62-150.75,14.02,14.35,26.64,30.08,37.65,46.93,22.49,34.4,37.95,73.13,45.27,113.6,7.08,39.08,6.52,79.23-1.64,118.11-7.65,36.51-21.88,71.42-41.96,102.86-20.82,32.63-47.72,61.1-79.11,83.75l-3.48,2.53-1.2,.78c-122.3,79.88-568.1,371.06-690.4,450.95"/>
  <path class="cls-3" d="M901.81,970.07c-6.42-10.54-13.38-20.56-20.85-29.99-20.88-26.38-45.43-47.83-72.36-63.17-22.61-12.9-46.69-21.34-71.29-25.04H315.37l-5.71-.35c-42.71-2.5-84.84-15.26-123.91-37.55-37.57-21.41-71.85-51.35-101.01-88.18-28.37-35.82-51.53-77.75-68.34-123.69-3.08,19.68-4.63,39.75-4.63,59.88-.02,41.1,6.51,81.98,19.18,119.86,12.23,36.59,29.99,69.9,52.23,97.99,20.88,26.38,45.43,47.83,72.36,63.17,27.93,15.93,58.09,25.06,88.72,26.86l3.4,.21H901.81"/>
</svg>