<svg 
 xmlns="http://www.w3.org/2000/svg"
 xmlns:xlink="http://www.w3.org/1999/xlink"
 width="35px" height="29px">
<path fill-rule="evenodd"  fill="rgb(255, 255, 255)"
 d="M32.479,9.136 C32.451,9.136 32.426,9.127 32.402,9.126 L28.991,25.280 L6.008,25.280 L2.597,9.126 C2.571,9.128 2.551,9.136 2.523,9.136 C1.132,9.136 -0.000,7.879 -0.000,6.328 C-0.000,4.781 1.132,3.523 2.523,3.523 C3.916,3.523 5.050,4.781 5.050,6.328 C5.050,7.335 4.570,8.210 3.854,8.708 C5.371,11.035 7.521,13.738 9.729,14.521 C12.642,15.551 15.352,9.215 16.684,5.450 C15.694,5.070 14.974,4.033 14.974,2.803 C14.974,1.256 16.106,-0.000 17.498,-0.000 C18.891,-0.000 20.022,1.256 20.022,2.803 C20.022,4.033 19.302,5.070 18.312,5.450 C19.646,9.215 22.360,15.551 25.268,14.521 C27.479,13.738 29.624,11.035 31.144,8.708 C30.425,8.210 29.947,7.335 29.947,6.328 C29.947,4.781 31.080,3.523 32.477,3.523 C33.866,3.523 34.998,4.781 35.000,6.328 C35.000,7.879 33.868,9.136 32.479,9.136 ZM28.875,28.1000 L6.123,28.1000 L6.123,25.849 L28.875,25.849 L28.875,28.1000 Z"/>
</svg>