<svg 
 xmlns="http://www.w3.org/2000/svg"
 xmlns:xlink="http://www.w3.org/1999/xlink"
 width="30px" height="30px">
<path fill-rule="evenodd"  fill="rgb(33, 33, 33)"
 d="M5.641,3.750 L5.641,1.875 C5.641,0.838 6.480,-0.000 7.515,-0.000 C8.550,-0.000 9.389,0.838 9.389,1.875 L9.389,3.750 C9.389,4.786 8.550,5.625 7.515,5.625 C6.480,5.625 5.641,4.786 5.641,3.750 ZM18.760,5.625 C19.796,5.625 20.634,4.786 20.634,3.750 L20.634,1.875 C20.634,0.838 19.796,-0.000 18.760,-0.000 C17.724,-0.000 16.885,0.838 16.885,1.875 L16.885,3.750 C16.885,4.786 17.724,5.625 18.760,5.625 ZM26.256,26.250 L0.018,26.250 L0.018,3.750 L4.704,3.750 C4.704,5.301 5.965,6.562 7.515,6.562 C9.065,6.562 10.326,5.301 10.326,3.750 L15.948,3.750 C15.948,5.301 17.209,6.562 18.760,6.562 C20.310,6.562 21.571,5.301 21.571,3.750 L26.256,3.750 L26.256,26.250 ZM24.382,9.375 L1.892,9.375 L1.892,24.375 L24.382,24.375 L24.382,9.375 ZM28.131,5.625 L28.131,28.124 L1.892,28.124 L1.892,29.999 L28.131,29.999 L30.005,29.999 L30.005,28.124 L30.005,5.625 L28.131,5.625 ZM9.389,11.250 L5.641,11.250 L5.641,14.999 L9.389,14.999 L9.389,11.250 ZM15.011,11.250 L11.263,11.250 L11.263,14.999 L15.011,14.999 L15.011,11.250 ZM20.634,11.250 L16.885,11.250 L16.885,14.999 L20.634,14.999 L20.634,11.250 ZM9.389,16.875 L5.641,16.875 L5.641,20.625 L9.389,20.625 L9.389,16.875 ZM15.011,16.875 L11.263,16.875 L11.263,20.625 L15.011,20.625 L15.011,16.875 ZM20.634,16.875 L16.885,16.875 L16.885,20.625 L20.634,20.625 L20.634,16.875 Z"/>
</svg>