<svg xmlns="http://www.w3.org/2000/svg" viewBox="0 0 1024 1024">
<g>
	<path fill="white" d="M132.2,399.3l281.5-91.7c3.6-1.2,7.1,2.2,7.1,6.8v623.5c0,3.9-2.5,7-5.6,7H133.6c-3.1,0-5.6-3.1-5.6-7V406
		C128,402.9,129.7,400.1,132.2,399.3z"/>
	<path fill="#16A085" d="M177.8,541.5l0.7-2c3.4-9.4,13.4-15.8,24.6-15.8h141.7c9.9,0,18.9,5,23.2,12.9l1.4,2.6
		c4.2,7.8,4,16.8-0.4,24.4h0c-4.4,7.7-13.4,12.5-23.2,12.5H204.1c-11.5,0-21.7-6.4-25.4-15.9l-0.8-2
		C175.9,552.8,175.8,547,177.8,541.5z"/>
	<path fill="#16A085" d="M177.8,843.7l0.7-2c3.4-9.4,13.4-15.8,24.6-15.8h141.7c9.9,0,18.9,5,23.2,12.9l1.4,2.6
		c4.2,7.8,4,16.8-0.4,24.4h0c-4.4,7.7-13.4,12.5-23.2,12.5H204.1c-11.5,0-21.7-6.4-25.4-15.9l-0.8-2
		C175.9,855,175.8,849.1,177.8,843.7z"/>
	<path fill="#16A085" d="M177.8,743l0.7-2c3.4-9.4,13.4-15.8,24.6-15.8h141.7c9.9,0,18.9,5,23.2,12.9l1.4,2.6c4.2,7.8,4,16.8-0.4,24.4
		l0,0c-4.4,7.7-13.4,12.5-23.2,12.5H204.1c-11.5,0-21.7-6.4-25.4-15.9l-0.8-2C175.9,754.3,175.8,748.4,177.8,743z"/>
	<path fill="#16A085" d="M177.8,642.2l0.7-2c3.4-9.4,13.4-15.8,24.6-15.8h141.7c9.9,0,18.9,5,23.2,12.9l1.4,2.6
		c4.2,7.8,4,16.8-0.4,24.4h0c-4.4,7.7-13.4,12.5-23.2,12.5H204.1c-11.5,0-21.7-6.4-25.4-15.9l-0.8-2
		C175.9,653.6,175.8,647.7,177.8,642.2z"/>
	<path fill="#16A085" d="M177.8,445.5l0.7-2c3.4-9.4,13.4-15.8,24.6-15.8h141.7c9.9,0,18.9,5,23.2,12.9l1.4,2.6
		c4.2,7.8,4,16.8-0.4,24.4h0c-4.4,7.7-13.4,12.5-23.2,12.5H204.1c-11.5,0-21.7-6.4-25.4-15.9l-0.8-2
		C175.9,456.8,175.8,450.9,177.8,445.5z"/>
</g>
<path fill="white" d="M790.9,307.4c0,88.4-71.6,160-160,160s-160-71.6-160-160s71.6-160,160-160S790.9,219,790.9,307.4z"/>
<path fill="white" d="M950.9,733.5c0,123.5-143.3,224.1-320.1,224.1S310.8,857.2,310.8,733.5s143.3-224,320.1-224
	S950.9,609.7,950.9,733.5z"/>
</svg>
