<?xml version="1.0" encoding="utf-8"?>
<svg width="24" height="24" version="1.1" xmlns="http://www.w3.org/2000/svg" viewBox="0 0 1024 1024">
<polygon fill="white" points="204,111 275,168 415,111 507,168 638,106 728,162 855,101 885,279 877,877.7 822,911 747,870 621.5,917 500,859 
	395,910 289,855 182.7,917 146,839 146,127 171,120 "/>
<path fill="white" d="M829.1,73.1h-6.5c-30.4,0-58.6,17.1-75.3,45.8c-6.2,10.4-22.3,11.7-30,2.4c-25.5-31.1-59.4-48.2-95.6-48.2
	c-36,0-69.9,17.1-95.4,48.2c-7,8.5-21.2,8.5-28.3,0c-25.5-31.1-59.4-48.2-95.4-48.2s-69.9,17.1-95.4,48.2c-7.7,9.4-23.8,8.1-30-2.4
	c-16.8-28.6-45-45.8-75.4-45.8h-7.2c-46.9,0-85.1,38.2-85.1,85.1v707.6c0,46.9,38.2,85,85.1,85h7.2c30.4,0,58.6-17.1,75.4-45.8
	c6.1-10.4,22.2-11.8,29.9-2.4c25.5,31,59.4,48.2,95.4,48.2s69.9-17.1,95.4-48.2c7-8.5,21.3-8.5,28.3,0c25.5,31,59.4,48.2,95.7,48.2
	c36,0,69.9-17.1,95.4-48.1c7.7-9.3,23.9-8,30,2.4c16.8,28.7,45,45.8,75.4,45.8h6.5c46.9,0,85-38.2,85-85V158.2
	C914.1,111.3,876,73.1,829.1,73.1z M841,865.8c0,6.6-5.3,11.9-11.9,11.9h-6.5c-6.1,0-10.9-7.3-12.2-9.6
	c-16.4-27.9-46.6-45.2-78.9-45.2c-27.4,0-53.2,12.2-70.6,33.4c-6.6,8-20.4,21.5-39.1,21.5c-18.5,0-32.3-13.5-38.9-21.5
	c-34.8-42.5-106.4-42.5-141.3,0c-6.6,8-20.4,21.5-38.9,21.5s-32.3-13.5-38.9-21.5c-17.4-21.2-43.2-33.4-70.6-33.4
	c-32.4,0-62.6,17.4-78.9,45.2c-1.3,2.2-6.1,9.6-12.2,9.6h-7.2c-6.6,0-11.9-5.3-11.9-11.9V158.2c0-6.6,5.3-11.9,11.9-11.9h7.2
	c6.1,0,10.9,7.4,12.2,9.6c16.3,27.9,46.6,45.3,78.9,45.3c27.5,0,53.2-12.2,70.6-33.4c6.6-8,20.4-21.5,38.9-21.5s32.3,13.5,38.9,21.5
	c34.9,42.5,106.4,42.4,141.3,0c6.6-8,20.4-21.5,39.2-21.5c18.5,0,32.3,13.4,38.9,21.5c17.5,21.2,43.2,33.4,70.6,33.4
	c32.3,0,62.6-17.3,79-45.3c1.3-2.2,6.1-9.6,12.2-9.6h6.5c6.6,0,11.9,5.3,11.9,11.9V865.8z"/>
<path class="st0" fill="#16A085" d="M256,433.5h512v73.1H256L256,433.5z M256,259.5h512v73.1H256L256,259.5z M256,616.2h365.7v73.4H256V616.2z"/>
</svg>
