<svg 
 xmlns="http://www.w3.org/2000/svg"
 xmlns:xlink="http://www.w3.org/1999/xlink"
 width="29px" height="29px">
<path fill-rule="evenodd"  fill="rgb(33, 33, 33)"
 d="M-0.000,28.1000 L14.493,28.1000 L14.493,-0.001 L-0.000,-0.001 L-0.000,28.1000 ZM9.058,3.625 L12.682,3.625 L12.682,7.249 L9.058,7.249 L9.058,3.625 ZM9.058,10.875 L12.682,10.875 L12.682,14.500 L9.058,14.500 L9.058,10.875 ZM9.058,18.125 L12.682,18.125 L12.682,21.750 L9.058,21.750 L9.058,18.125 ZM1.812,3.625 L5.435,3.625 L5.435,7.249 L1.812,7.249 L1.812,3.625 ZM1.812,10.875 L5.435,10.875 L5.435,14.500 L1.812,14.500 L1.812,10.875 ZM1.812,18.125 L5.435,18.125 L5.435,21.750 L1.812,21.750 L1.812,18.125 ZM16.305,9.062 L28.987,9.062 L28.987,10.875 L16.305,10.875 L16.305,9.062 ZM16.305,28.1000 L19.929,28.1000 L19.929,21.750 L25.364,21.750 L25.364,28.1000 L28.987,28.1000 L28.987,12.687 L16.305,12.687 L16.305,28.1000 Z"/>
</svg>