<?xml version="1.0" standalone="no"?>
<svg version="1.0" xmlns="http://www.w3.org/2000/svg"
 width="24px" height="24px" viewBox="0 0 287 300" preserveAspectRatio="xMidYMid meet">
<g transform="translate(0.000000,300.000000) scale(0.100000,-0.100000)"
fill="#000000" stroke="none">
<path d="M846 2676 c-81 -30 -135 -111 -136 -203 l0 -53 -79 0 c-93 0 -124
-10 -170 -53 -64 -61 -61 -12 -61 -962 0 -846 0 -866 20 -904 22 -44 68 -83
119 -100 48 -16 1228 -16 1282 0 84 26 134 92 147 196 l7 58 85 5 c89 5 128
20 167 62 49 53 53 78 53 373 l0 275 235 248 c200 210 235 252 235 277 0 25
-15 45 -77 107 -84 83 -123 109 -154 101 -10 -3 -68 -57 -127 -121 l-107 -115
-5 345 -5 345 -28 40 c-15 22 -46 50 -70 64 l-42 24 -625 2 c-513 2 -632 0
-664 -11z m1306 -115 l33 -29 3 -381 3 -381 -178 -188 -178 -188 -57 -142
c-32 -78 -58 -152 -58 -164 0 -29 28 -58 56 -58 12 0 87 31 166 68 119 57 152
78 195 123 l53 54 0 -220 c0 -202 -2 -223 -20 -253 -11 -18 -32 -37 -46 -42
-15 -6 -262 -10 -632 -10 -584 0 -608 1 -639 20 -21 13 -35 31 -42 57 -15 52
-15 1633 -1 1685 6 20 22 46 37 58 25 20 36 20 649 20 l624 0 32 -29z m-1440
-1000 l3 -769 30 -44 c18 -25 49 -52 75 -65 44 -23 45 -23 547 -23 l503 0 0
-56 c0 -48 -4 -59 -29 -85 l-29 -29 -629 0 c-580 0 -630 2 -649 18 -12 9 -27
27 -33 39 -8 15 -11 264 -11 866 l0 844 21 27 c29 37 52 45 131 45 l68 1 2
-769z m1891 380 c20 -19 37 -40 37 -45 0 -5 -12 -22 -26 -37 l-27 -28 -53 46
c-30 25 -54 49 -54 53 0 5 12 22 26 40 29 34 29 34 97 -29z m-137 -132 l53
-52 -197 -207 -197 -207 -8 36 c-10 46 -18 53 -66 60 l-39 6 196 208 c107 114
198 207 201 207 3 0 29 -23 57 -51z m-446 -511 c0 -24 -4 -48 -8 -54 -9 -14
-151 -86 -161 -82 -14 5 59 166 77 171 9 3 34 5 55 6 l37 1 0 -42z"/>
<path d="M1435 2338 c-82 -11 -172 -57 -229 -118 -188 -201 -128 -519 122
-642 62 -31 74 -33 167 -33 92 0 106 3 167 32 258 122 316 460 113 652 -98 93
-205 127 -340 109z m204 -123 c227 -124 216 -445 -18 -553 -44 -20 -72 -26
-126 -26 -94 0 -160 30 -223 98 -63 70 -86 135 -80 230 8 124 78 221 192 266
76 30 184 23 255 -15z"/>
<path d="M1675 2068 c-11 -7 -56 -42 -100 -80 -44 -37 -83 -68 -87 -68 -5 0
-26 16 -47 36 -52 46 -94 45 -99 -2 -3 -25 6 -39 57 -87 40 -39 68 -57 85 -57
17 0 61 30 141 97 97 81 115 100 115 124 0 18 -7 32 -19 39 -24 12 -21 12 -46
-2z"/>
<path d="M1016 1364 c-22 -22 -20 -50 6 -68 19 -14 71 -16 363 -16 292 0 344
2 363 16 26 18 28 46 6 68 -13 14 -61 16 -369 16 -308 0 -356 -2 -369 -16z"/>
<path d="M1000 1099 c-9 -16 -8 -26 5 -45 l15 -24 303 0 c318 0 327 1 327 45
0 44 -8 45 -332 45 -300 0 -308 0 -318 -21z"/>
</g>
</svg>
