<svg xmlns="http://www.w3.org/2000/svg" viewBox="0 0 1024 1024">
<path fill="white" d="M576.3,255.6c0,88.4-71.6,160-160,160s-160-71.6-160-160s71.6-160,160-160S576.3,167.2,576.3,255.6z"/>
<path fill="white" d="M715.2,664.8c0,123.5-143.3,224.1-320.1,224.1S75,788.5,75,664.8s143.3-224,320.1-224S715.2,541.1,715.2,664.8z"/>
<path fill="white" d="M811.2,383.5c0,53-43,96-96,96c-53,0-96-43-96-96c0-53,43-96,96-96c25.5,0,49.9,10.1,67.9,28.1
	C801.1,333.6,811.2,358,811.2,383.5z"/>
<path fill="white" d="M728.9,837.5c97,8,182.4-63.3,192.1-160.1c-9.7-96.8-95.1-168-192.1-160"/>
</svg>
