<svg xmlns="http://www.w3.org/2000/svg" viewBox="0 0 1024 1024">
<g>
	<g>
		<path fill="white" d="M839.9,451.1h-149V257.7c0-40.3-32.8-73.1-73.1-73.1h-0.9V80.1c0-4.5-2.2-8.8-5.9-11.4
			c-3.7-2.6-8.5-3.2-12.7-1.7l-36,13.1l-36-13.1c-3.1-1.1-6.4-1.1-9.5,0l-36,13.1l-36-13.1c-3.1-1.1-6.4-1.1-9.5,0l-36,13.1
			l-36-13.1c-3.1-1.1-6.4-1.1-9.5,0l-36,13.1L282,67c-4.3-1.5-9-0.9-12.7,1.7c-3.7,2.6-5.9,6.8-5.9,11.4v104.6h-0.9
			c-40.3,0-73.1,32.8-73.1,73.1v621.9c0,40.3,32.8,73.1,73.1,73.1h355.4c35.6,0,65.3-25.5,71.8-59.2h150.3
			c15.8,0,28.7-12.9,28.7-28.7v-385C868.6,464,855.7,451.1,839.9,451.1z M663.2,879.6c0,25-20.3,45.3-45.3,45.3H262.5
			c-25,0-45.3-20.3-45.3-45.3V257.7c0-25,20.3-45.3,45.3-45.3h0.9v75.9h-0.9c-7.7,0-13.9,6.2-13.9,13.9s6.2,13.9,13.9,13.9h355.4
			c7.7,0,13.9-6.2,13.9-13.9s-6.2-13.9-13.9-13.9h-0.9v-75.9h0.9c25,0,45.3,20.3,45.3,45.3V879.6z"/>
	</g>
</g>
<g>
	<g>
		<path fill="white" class="st4" d="M447.5,569.6h-14.8c-24,0-43.5,19.5-43.5,43.5s19.5,43.5,43.5,43.5h14.8c24,0,43.5-19.5,43.5-43.5
			C491,589.1,471.5,569.6,447.5,569.6z"/>
	</g>
</g>
<g>
	<g>
		<path fill="white" class="st4" d="M447.5,688.1h-14.8c-24,0-43.5,19.5-43.5,43.5s19.5,43.5,43.5,43.5h14.8c24,0,43.5-19.5,43.5-43.5
			C491,707.6,471.5,688.1,447.5,688.1z"/>
	</g>
</g>
<g>
	<g>
		<path fill="white" class="st4" d="M447.5,806.5h-14.8c-24,0-43.5,19.5-43.5,43.5s19.5,43.5,43.5,43.5h14.8c24,0,43.5-19.5,43.5-43.5
			C491,826,471.5,806.5,447.5,806.5z"/>
	</g>
</g>
<g>
	<g>
		<path fill="white" class="st4" d="M580.8,569.6H566c-24,0-43.5,19.5-43.5,43.5s19.5,43.5,43.5,43.5h14.8c24,0,43.5-19.5,43.5-43.5
			C624.3,589.1,604.8,569.6,580.8,569.6z"/>
	</g>
</g>
<g>
	<g>
		<path fill="white" class="st4" d="M580.8,688.1H566c-24,0-43.5,19.5-43.5,43.5S542,775,566,775h14.8c24,0,43.5-19.5,43.5-43.5
			C624.3,707.6,604.8,688.1,580.8,688.1z"/>
	</g>
</g>
<g>
	<g>
		<path fill="white" class="st4" d="M580.8,806.5H566c-24,0-43.5,19.5-43.5,43.5s19.5,43.5,43.5,43.5h14.8c24,0,43.5-19.5,43.5-43.5
			C624.3,826,604.8,806.5,580.8,806.5z"/>
	</g>
</g>
<g>
	<g>
		<path fill="white" class="st4" d="M314.3,569.6h-14.8c-24,0-43.5,19.5-43.5,43.5s19.5,43.5,43.5,43.5h14.8c24,0,43.5-19.5,43.5-43.5
			C357.8,589.1,338.3,569.6,314.3,569.6z"/>
	</g>
</g>
<g>
	<g>
		<path fill="white" class="st4" d="M314.3,688.1h-14.8c-24,0-43.5,19.5-43.5,43.5s19.5,43.5,43.5,43.5h14.8c24,0,43.5-19.5,43.5-43.5
			C357.8,707.6,338.3,688.1,314.3,688.1z"/>
	</g>
</g>
<g>
	<g>
		<path fill="white" class="st4" d="M314.3,806.5h-14.8c-24,0-43.5,19.5-43.5,43.5s19.5,43.5,43.5,43.5h14.8c24,0,43.5-19.5,43.5-43.5
			C357.8,826,338.3,806.5,314.3,806.5z"/>
	</g>
</g>
<g>
	<g>
		<path fill="white" class="st4" d="M603,347.5H277.3c-15.8,0-28.7,12.8-28.7,28.7v133.3c0,15.8,12.8,28.7,28.7,28.7H603
			c15.8,0,28.7-12.8,28.7-28.7V376.2C631.7,360.3,618.9,347.5,603,347.5z"/>
	</g>
</g>
</svg>
